PathFileType	4	(X/Y/Z)	C:/Users/opensim2020/Desktop/walking_exp_matlab/subject03_walking06_straight_03.trc																																																																																																																																		
DataRate	CameraRate	NumFrames	NumMarkers	Units	OrigDataRate	OrigDataStartFrame	OrigNumFrames																																																																																																																														
100	100	8	44	mm	100	2240	280																																																																																																																														
Frame#	Time	LFHD			RFHD			LBHD			RBHD			C7			T10			CLAV			STRN			RBAK			LSHO			LUPA			LELB			LFRM			LWRA			LWRB			LFIN			RSHO			RUPA			RELB			RFRM			RWRA			RWRB			RFIN			LASI			RASI			LPSI			RPSI			LTHI			LKNE			LTIB			LANK			LHEE			LTOE			RTHI			RKNE			RTIB			RANK			RHEE			RTOE			*39			*40			*41			*42			*43		
		X1	Y1	Z1	X2	Y2	Z2	X3	Y3	Z3	X4	Y4	Z4	X5	Y5	Z5	X6	Y6	Z6	X7	Y7	Z7	X8	Y8	Z8	X9	Y9	Z9	X10	Y10	Z10	X11	Y11	Z11	X12	Y12	Z12	X13	Y13	Z13	X14	Y14	Z14	X15	Y15	Z15	X16	Y16	Z16	X17	Y17	Z17	X18	Y18	Z18	X19	Y19	Z19	X20	Y20	Z20	X21	Y21	Z21	X22	Y22	Z22	X23	Y23	Z23	X24	Y24	Z24	X25	Y25	Z25	X26	Y26	Z26	X27	Y27	Z27	X28	Y28	Z28	X29	Y29	Z29	X30	Y30	Z30	X31	Y31	Z31	X32	Y32	Z32	X33	Y33	Z33	X34	Y34	Z34	X35	Y35	Z35	X36	Y36	Z36	X37	Y37	Z37	X38	Y38	Z38	X39	Y39	Z39	X40	Y40	Z40	X41	Y41	Z41	X42	Y42	Z42	X43	Y43	Z43	X44	Y44	Z44
																																																																																																																																					
246	2.45	1169.7207	1623.58899	1352.9939	1180.17908	1636.36377	1486.46484	1045.93896	1570.77258	1371.23718	1060.81018	1583.37097	1500.77246	1030.69556	1419.52783	1431.8031	1002.2359	1105.5719	1433.41858	1153.75195	1345.15796	1431.36938	1202.11475	1182.23022	1430.55127	984.26965	1245.42358	1533.49048	1109.48291	1378.41956	1275.91931	1092.63123	1177.68384	1211.01855	1089.18213	1053.33948	1205.94531	1102.73572	923.71588	1212.92908	1104.27454	805.05371	1247.89307	1089.71411	811.48523	1192.82104	1080.31458	724.79352	1210.79675	1113.15698	1372.13245	1590.89209	1133.9408	1151.29529	1665.14685	1161.94275	1042.57922	1678.23352	1206.42346	913.18164	1676.58081	1256.42334	828.65765	1636.76477	1226.63904	814.47668	1679.92676	1264.4928	750.83319	1666.37524	1176.02539	946.17786	1322.60779	1164.89746	939.66724	1560.20837	1012.95026	969.9939	1364.28027	1006.50098	970.60437	1513.42761	1138.39148	644.89661	1281.59436	1170.9873	470.41293	1327.24695	1141.81665	277.87283	1331.12195	1146.30981	70.1162	1377.56238	1109.01001	36.13982	1416.27002	1300.50671	36.00877	1389.15723	1111.16394	640.26849	1610.22583	1136.70593	460.85706	1594.95679	986.92389	341.84372	1599.29004	816.16376	210.82961	1558.79065	770.74084	227.47223	1502.97229	853.0625	70.54053	1543.66125	1087.4502	1681.05469	1408.66382	NaN	NaN	NaN	NaN	NaN	NaN	NaN	NaN	NaN	NaN	NaN	NaN
247	2.46	1179.21997	1624.08435	1351.72107	1189.36511	1636.91187	1484.70447	1055.51257	1570.98999	1370.04089	1070.37842	1583.86157	1499.55591	1040.45874	1420.06128	1430.77625	1012.06848	1105.87952	1432.36755	1163.36816	1345.72375	1430.75867	1211.61487	1182.57776	1429.75134	993.17511	1245.48767	1531.63232	1119.50964	1378.39758	1275.10303	1105.29272	1177.60278	1209.58899	1103.13867	1053.14038	1203.90234	1118.98755	923.79663	1211.00427	1122.03784	805.09894	1246.67188	1107.87891	811.14954	1191.21899	1100.948	724.6214	1208.78931	1122.29016	1372.03979	1590.29065	1142.29102	1150.84619	1664.09717	1169.49609	1041.72449	1677.18933	1212.00781	911.66345	1675.87341	1260.77832	826.35132	1636.30383	1230.70642	812.68573	1679.44177	1267.55591	748.48083	1665.65771	1185.65686	946.75903	1321.45105	1174.76453	940.2207	1559.49133	1022.3595	970.31116	1363.49182	1016.38654	970.40485	1512.51099	1146.25891	645.47723	1280.81555	1175.86902	470.40778	1326.15491	1144.49561	278.02414	1330.66357	1146.3739	70.25965	1377.55811	1108.98962	36.30064	1416.31177	1300.552	35.9183	1389.10889	1127.01245	641.13	1608.79907	1157.07324	462.70752	1594.02856	1007.45795	344.47366	1598.33179	836.61877	213.31088	1558.27307	790.51367	228.54817	1502.19446	875.7749	73.7371	1545.80225	1096.6969	1680.95117	1406.70166	NaN	NaN	NaN	NaN	NaN	NaN	NaN	NaN	NaN	NaN	NaN	NaN
248	2.47	1188.66223	1624.51953	1350.45447	1198.89111	1637.65833	1483.58447	1065.10205	1571.18372	1368.94995	1079.90698	1584.31824	1498.37756	1050.19739	1420.71143	1429.75867	1021.14093	1105.96326	1431.18408	1172.62439	1345.98206	1429.89893	1221.03772	1182.95898	1428.88904	1002.14197	1245.55798	1529.70544	1129.09314	1378.14453	1274.17456	1117.57251	1177.48279	1208.23584	1117.54456	1053.17139	1201.98669	1135.36743	923.91034	1208.98999	1140.24072	805.50427	1244.85413	1126.20605	810.94635	1189.65088	1122.27393	724.72302	1206.69263	1131.25293	1371.87781	1589.67407	1150.61658	1150.42639	1663.01758	1177.11743	1040.92834	1676.04834	1217.58862	910.18823	1675.09985	1264.9834	824.06958	1635.80359	1234.65454	810.97131	1679.08154	1270.71045	746.41376	1665.38403	1194.79651	947.41302	1320.08044	1184.77686	940.9079	1558.43054	1031.56763	970.8158	1362.97437	1026.34851	970.45996	1511.82178	1154.32251	645.89288	1280.66199	1180.83179	470.51538	1325.56091	1147.30798	278.16898	1330.35498	1146.51648	70.46791	1377.64417	1108.97607	36.47789	1416.36682	1300.64978	35.83721	1389.15417	1143.05554	642.12866	1607.39905	1177.23633	464.68427	1592.83557	1028.15674	346.6152	1597.18896	857.77142	214.60417	1557.81799	810.83496	228.42955	1501.64844	899.70624	76.0053	1547.24976	1105.84387	1681.59778	1406.72925	NaN	NaN	NaN	NaN	NaN	NaN	NaN	NaN	NaN	NaN	NaN	NaN
249	2.48	1198.11462	1624.79407	1349.24048	1208.37695	1638.22314	1482.46716	1074.51233	1571.28662	1367.84045	1089.41492	1584.70789	1497.28357	1059.61755	1421.03662	1428.90295	1030.71216	1106.81604	1430.73303	1181.96948	1346.29431	1429.19592	1230.40454	1183.25183	1427.96521	1010.94348	1245.58276	1527.88745	1138.59924	1378.10132	1273.41968	1129.9491	1177.58826	1207.04065	1131.94092	1053.34595	1200.27588	1151.83093	924.32849	1207.28943	1158.53784	806.17126	1243.00415	1144.89514	811.0799	1188.06226	1144.11279	725.28192	1204.47485	1140.12427	1371.82483	1589.13123	1158.75854	1150.04395	1661.85608	1184.62073	1040.32263	1674.88342	1223.06689	908.94073	1674.30396	1269.0592	821.96667	1635.30688	1238.68738	809.4541	1678.57678	1273.93457	744.72565	1665.45935	1203.74866	948.14612	1318.48145	1195.05774	941.77502	1557.08655	1040.80664	971.11877	1362.82654	1036.31458	970.81348	1511.30054	1162.62585	646.17224	1280.76501	1186.64172	470.63712	1325.3479	1150.15735	278.35007	1330.13391	1146.78027	70.72284	1377.76038	1109.0354	36.6964	1416.50574	1300.81299	35.74268	1389.27063	1159.15198	643.15686	1605.98511	1196.99866	466.70984	1591.55676	1048.85535	348.27203	1596.03918	879.77222	214.6846	1557.56482	831.69324	227.06113	1501.39587	924.84662	77.40211	1548.14612	1115.13159	1681.89014	1405.37524	NaN	NaN	NaN	NaN	NaN	NaN	NaN	NaN	NaN	NaN	NaN	NaN
250	2.49	1207.47742	1624.94751	1348.06067	1217.81348	1638.69958	1481.42908	1083.82068	1571.37976	1366.76477	1098.82727	1585.01587	1496.20459	1068.97327	1421.4043	1428.09412	1039.97388	1107.20166	1430.14197	1191.35828	1346.52075	1428.48303	1239.6604	1183.50891	1427.01196	1019.84222	1245.65771	1526.22461	1147.92188	1378.12646	1272.66785	1142.11731	1177.77478	1206.20984	1146.39514	1053.80469	1198.70703	1168.41016	925.14526	1205.83496	1176.89233	807.17389	1241.24829	1163.85803	811.79785	1186.21497	1166.43298	726.41217	1202.19788	1148.95508	1371.82349	1588.55945	1166.71533	1149.76709	1660.7644	1191.93945	1039.80176	1673.57288	1228.52844	907.87109	1673.46191	1272.97888	820.08722	1634.73596	1242.55591	808.20966	1678.28418	1277.20459	743.22406	1665.43665	1212.44751	948.70691	1316.76538	1205.40015	942.76031	1555.41541	1049.89709	971.69855	1362.31653	1046.31006	971.22522	1510.91028	1171.16321	646.24927	1280.81714	1192.42493	470.4754	1325.34119	1153.0061	278.49744	1329.89856	1146.96655	70.92767	1377.97546	1109.10583	36.98523	1416.65698	1300.93896	35.65751	1389.39185	1175.05688	644.17072	1604.80652	1216.42578	468.73016	1590.08093	1069.77722	349.22403	1594.75562	902.01532	213.54437	1556.94141	853.0929	224.46887	1501.3573	951.07849	77.89028	1548.36426	1124.6748	1682.08228	1403.15955	NaN	NaN	NaN	NaN	NaN	NaN	NaN	NaN	NaN	NaN	NaN	NaN
251	2.5	1216.78723	1625.04163	1346.97827	1227.08643	1638.92297	1480.14331	1093.2179	1571.40918	1365.78589	1108.19727	1585.22632	1495.22717	1078.33813	1421.60754	1427.26794	1049.3009	1107.4314	1429.54492	1200.77551	1346.80334	1427.78064	1248.85352	1183.70422	1425.98535	1028.87781	1245.87036	1524.85217	1157.16748	1378.36169	1271.93701	1154.05078	1178.25574	1205.21313	1160.87756	1054.34021	1197.41602	1185.16833	926.27985	1204.20374	1195.48718	808.59772	1239.47668	1182.9873	813.12531	1184.16492	1189.02234	728.07507	1199.96826	1157.69592	1371.90784	1587.89612	1174.38049	1149.55725	1659.72571	1199.1145	1039.41919	1672.24731	1233.84619	907.05432	1672.64551	1276.8064	818.44458	1634.18628	1246.526	807.24976	1677.86511	1280.53857	742.13873	1665.74829	1220.93982	949.00287	1314.97351	1215.81433	943.7738	1553.63123	1059.01697	971.90314	1362.07544	1056.26672	971.6825	1510.65747	1179.59058	646.4798	1280.78699	1198.17224	470.19595	1325.28491	1155.97327	278.57547	1329.76074	1147.34106	71.38126	1378.16553	1109.20508	37.27273	1416.75732	1301.0863	35.59955	1389.48279	1190.64478	645.14728	1603.63757	1235.61145	470.75177	1588.51575	1090.96045	349.39804	1593.34741	925.09698	211.23523	1556.48645	875.1178	220.70015	1501.40015	978.47632	77.71838	1548.33093	1133.98938	1682.32446	1402.37366	NaN	NaN	NaN	NaN	NaN	NaN	NaN	NaN	NaN	NaN	NaN	NaN
252	2.51	1226.19092	1625.11584	1345.97974	1236.42749	1639.10437	1479.08533	1102.62573	1571.3269	1364.84448	1117.62305	1585.39294	1494.22546	1087.55957	1421.81396	1426.51563	1058.46106	1107.97437	1429.24622	1210.00977	1346.89197	1427.05151	1257.94238	1183.83154	1424.9585	1037.89392	1245.97729	1523.65454	1166.3053	1378.76929	1271.27417	1165.78699	1178.94177	1204.16711	1175.2323	1055.49951	1196.12219	1201.89905	927.75623	1202.83374	1214.2251	810.45538	1237.67139	1202.12585	814.58813	1182.69055	1211.78198	730.42419	1197.68323	1166.50281	1372.08032	1587.23608	1181.84656	1149.42871	1658.745	1206.1604	1039.3374	1671.15015	1239.07922	906.39832	1671.82092	1280.53674	816.97058	1633.59985	1250.3551	806.51971	1677.57739	1283.87219	741.32813	1666.15918	1229.54688	949.30756	1313.25305	1226.25586	944.78766	1551.75232	1068.21985	971.76678	1362.06726	1066.22876	972.034	1510.43127	1188.17517	646.19287	1280.25806	1203.90918	470.18326	1325.19531	1159.01257	278.65799	1329.52209	1147.67004	71.65432	1378.24084	1109.22742	37.62323	1416.85181	1301.10559	35.46517	1389.58521	1206.07043	646.11572	1602.43896	1254.46252	472.79968	1586.78479	1112.38599	348.89206	1591.98584	948.89203	207.69368	1555.70581	897.66626	215.70953	1501.47107	1006.54663	76.45186	1547.1178	1143.21057	1682.20667	1401.31506	NaN	NaN	NaN	NaN	NaN	NaN	NaN	NaN	NaN	NaN	NaN	NaN
253	2.52	1235.63989	1625.16772	1345.0625	1245.89844	1639.27356	1478.33679	1112.11707	1571.37976	1363.99768	1126.94543	1585.51221	1493.34607	1096.65601	1421.92468	1425.78516	1067.44165	1107.74109	1428.80078	1219.08838	1346.84375	1426.12085	1266.96045	1183.89673	1423.80798	1046.97498	1246.14563	1522.72583	1175.21033	1379.12683	1270.59534	1177.37793	1180.01587	1202.90552	1189.46509	1056.69885	1194.97095	1218.58264	929.57892	1201.54297	1233.21204	812.65741	1235.68433	1221.44861	816.68488	1180.81702	1234.73499	733.35022	1195.38391	1175.422	1372.26672	1586.50464	1189.14832	1149.38025	1657.87512	1212.98621	1039.13611	1670.05164	1244.18347	905.89337	1671.09485	1284.24915	815.69403	1633.11108	1254.18872	805.93549	1677.35376	1287.30042	740.72491	1666.71033	1238.04175	949.36151	1311.39648	1236.57153	945.63745	1549.91663	1077.16602	971.92316	1361.48694	1076.13611	972.42743	1510.21021	1195.89368	646.04413	1279.95203	1208.95117	469.68887	1324.87354	1161.90552	278.78259	1329.33997	1147.95642	71.89616	1378.27783	1109.31042	37.98697	1416.87439	1301.20374	35.38593	1389.59595	1221.19092	647.20319	1601.28918	1273.04846	474.88229	1585.0271	1133.90259	347.75195	1590.69092	973.13312	203.37099	1555.37744	920.8606	209.4431	1501.39661	1035.80151	74.55158	1545.6532	1152.67847	1682.40955	1400.02319	NaN	NaN	NaN	NaN	NaN	NaN	NaN	NaN	NaN	NaN	NaN	NaN
